<svg id="Capa_1" data-name="Capa 1" xmlns="http://www.w3.org/2000/svg" xmlns:xlink="http://www.w3.org/1999/xlink" viewBox="0 0 965.65 800.85"><defs><style>.cls-1{fill:#0020e9;}.cls-1,.cls-16{opacity:0.1;isolation:isolate;}.cls-2{fill:none;stroke:#535461;stroke-miterlimit:10;stroke-width:2px;}.cls-3{fill:#6c63ff;}.cls-4{fill:#c9df00;}.cls-5{fill:#ffd037;}.cls-6{fill:url(#Degradado_sin_nombre);}.cls-7{fill:#f7f7fd;}.cls-8{fill:#e2e2ec;}.cls-9{fill:#fff;}.cls-10{fill:#fc6681;}.cls-11{fill:#bcce00;}.cls-12{fill:#009cde;}.cls-13{fill:#c0c60f;}.cls-14{fill:url(#Degradado_sin_nombre_2);}.cls-15{fill:#db8b8b;}.cls-17{fill:#474463;}.cls-18{fill:#005ac9;}.cls-19{fill:#0060c9;}.cls-20{fill:#472727;}.cls-21{fill:#004caa;}.cls-22{opacity:0.69;}.cls-23{fill:#c0cd29;}.cls-23,.cls-24,.cls-25{fill-rule:evenodd;}.cls-24,.cls-27{fill:#009bdb;}.cls-25,.cls-26{fill:#596666;}</style><linearGradient id="Degradado_sin_nombre" x1="478.37" y1="687.73" x2="478.37" y2="25.2" gradientTransform="translate(0 7.99)" gradientUnits="userSpaceOnUse"><stop offset="0" stop-color="gray" stop-opacity="0.25"/><stop offset="0.54" stop-color="gray" stop-opacity="0.12"/><stop offset="1" stop-color="gray" stop-opacity="0.1"/></linearGradient><linearGradient id="Degradado_sin_nombre_2" x1="2542.24" y1="798.86" x2="2542.24" y2="187" gradientTransform="matrix(-1, 0, 0, 1, 3356.82, -41.6)" xlink:href="#Degradado_sin_nombre"/></defs><title>citas</title><path class="cls-1" d="M901.88,442.49c-37.09,60-30.14,141.74-13.85,206.19,5.45,21.58,11.73,44.36,7.07,68.51-5.7,29.53-26.48,52.72-47.51,66-38.34,24.15-82.12,23.48-114-1.77-27.53-21.81-45.66-59.85-73.77-80.49-47-34.55-111.54-13.61-167.58,18.68C452.61,742.4,409,771.4,372.36,755c-25.77-11.53-41.84-44.06-49.34-79.46-3.62-17.09-5.81-35.76-14.11-48.78-4.94-7.74-11.73-12.92-18.77-17.17C225.89,570.83,139,603.22,77,559.35c-41.85-29.62-65.64-90.8-73.46-156.22S2.15,267.71,10.2,198.79c5.73-49,13.48-101.42,39.2-141.27,27.21-42.15,70.1-61,107.38-57S226.43,28.14,254.33,57c34.87,36.08,66.32,82.16,111.45,93.8,30.74,7.93,64.31-1.25,97-6.44,54.58-8.68,108.4-6.19,161.84-2.93,51.16,3.12,102.63,7,150.3,25C808.65,179.19,834.54,205.73,866,223c20.52,11.25,43.67,12.68,62.79,27.68,23.55,18.48,43.93,52.59,34.5,95.71C954.32,387.4,921.56,410.65,901.88,442.49Z" transform="translate(0 0)"/><path class="cls-2" d="M664.49,306.87s101-84.63,123.46-127.3,51-79.44,51-79.44" transform="translate(0 0)"/><path class="cls-3" d="M825.72,195.52,782,185.67S792.34,231.75,825.72,195.52Z" transform="translate(0 0)"/><path class="cls-4" d="M759,148.48l25.14,37.65S735,189.68,759,148.48Z" transform="translate(0 0)"/><path class="cls-3" d="M842.91,160.13l-39.93-7S828.06,191.28,842.91,160.13Z" transform="translate(0 0)"/><path class="cls-4" d="M783.82,126.48l19.67,25.76S768.67,155.54,783.82,126.48Z" transform="translate(0 0)"/><path class="cls-4" d="M823.63,121.35s34,1.62,38,4.87-5.07,22.3-18,19.19S823.63,121.35,823.63,121.35Z" transform="translate(0 0)"/><path class="cls-4" d="M810,91s13.89,25.31,13.37,30.13-21.17,10.23-25.34-8S810,91,810,91Z" transform="translate(0 0)"/><circle class="cls-5" cx="844.28" cy="107.47" r="9.45" transform="translate(487.5 880.18) rotate(-72.47)"/><circle class="cls-5" cx="829.48" cy="97.74" r="9.45" transform="translate(486.43 859.26) rotate(-72.47)"/><path class="cls-4" d="M349.46,638.62s16.21-48.22-86.55-106.35c0,0-104.34-30.43-93.67-134.93,0,0-120.28,88.12-38.89,200.37S282,685.46,282,685.46Z" transform="translate(0 0)"/><path class="cls-2" d="M318.13,660.4s-50.14-54.19-98.2-75.14a95.8,95.8,0,0,1-26.11-17.39c-30.64-28-44-70.25-36.1-111l11.55-59.53" transform="translate(0 0)"/><rect class="cls-6" x="193.07" y="33.19" width="570.61" height="662.53"/><rect class="cls-7" x="199.72" y="40.9" width="557.32" height="647.09"/><rect class="cls-8" x="233.38" y="113.84" width="140.89" height="11.22"/><rect class="cls-8" x="233.38" y="141.27" width="240.63" height="11.22"/><rect class="cls-9" x="630.36" y="103.12" width="99.99" height="86.28"/><path class="cls-8" d="M729.82,103.62V188.9h-99V103.62h99m1-1h-101V189.9h101Z" transform="translate(0 0)"/><rect class="cls-9" x="529.37" y="103.12" width="99.99" height="86.28"/><path class="cls-8" d="M628.82,103.62V188.9h-99V103.62h99m1-1h-101V189.9h101Z" transform="translate(0 0)"/><rect class="cls-9" x="630.36" y="190.4" width="99.99" height="86.28"/><path class="cls-8" d="M729.82,190.9v85.28h-99V190.9h99m1-1h-101v87.28h101Z" transform="translate(0 0)"/><rect class="cls-9" x="529.37" y="190.4" width="99.99" height="86.28"/><path class="cls-8" d="M628.82,190.9v85.28h-99V190.9h99m1-1h-101v87.28h101Z" transform="translate(0 0)"/><rect class="cls-9" x="428.38" y="190.4" width="99.99" height="86.28"/><path class="cls-8" d="M527.87,190.9v85.28h-99V190.9h99m1-1h-101v87.28h101Z" transform="translate(0 0)"/><rect class="cls-9" x="327.39" y="190.4" width="99.99" height="86.28"/><path class="cls-8" d="M426.88,190.9v85.28h-99V190.9h99m1-1h-101v87.28h101Z" transform="translate(0 0)"/><rect class="cls-9" x="226.4" y="190.4" width="99.99" height="86.28"/><path class="cls-8" d="M325.89,190.9v85.28h-99V190.9h99m1-1h-101v87.28h101Z" transform="translate(0 0)"/><rect class="cls-9" x="630.36" y="277.67" width="99.99" height="86.28"/><path class="cls-8" d="M729.82,278.18v85.28h-99V278.18h99m1-1h-101v87.28h101Z" transform="translate(0 0)"/><rect class="cls-9" x="529.37" y="277.67" width="99.99" height="86.28"/><path class="cls-8" d="M628.82,278.18v85.28h-99V278.18h99m1-1h-101v87.28h101Z" transform="translate(0 0)"/><rect class="cls-9" x="428.38" y="277.67" width="99.99" height="86.28"/><path class="cls-8" d="M527.87,278.18v85.28h-99V278.18h99m1-1h-101v87.28h101Z" transform="translate(0 0)"/><rect class="cls-9" x="327.39" y="277.67" width="99.99" height="86.28"/><path class="cls-8" d="M426.88,278.18v85.28h-99V278.18h99m1-1h-101v87.28h101Z" transform="translate(0 0)"/><rect class="cls-9" x="226.4" y="277.67" width="99.99" height="86.28"/><path class="cls-8" d="M325.89,278.18v85.28h-99V278.18h99m1-1h-101v87.28h101Z" transform="translate(0 0)"/><rect class="cls-9" x="630.36" y="364.95" width="99.99" height="86.28"/><path class="cls-8" d="M729.82,365.45v85.28h-99V365.45h99m1-1h-101v87.28h101Z" transform="translate(0 0)"/><rect class="cls-9" x="529.37" y="364.95" width="99.99" height="86.28"/><path class="cls-8" d="M628.82,365.45v85.28h-99V365.45h99m1-1h-101v87.28h101Z" transform="translate(0 0)"/><rect class="cls-9" x="428.38" y="364.95" width="99.99" height="86.28"/><path class="cls-8" d="M527.87,365.45v85.28h-99V365.45h99m1-1h-101v87.28h101Z" transform="translate(0 0)"/><rect class="cls-9" x="327.39" y="364.95" width="99.99" height="86.28"/><path class="cls-8" d="M426.88,365.45v85.28h-99V365.45h99m1-1h-101v87.28h101Z" transform="translate(0 0)"/><rect class="cls-9" x="226.4" y="364.95" width="99.99" height="86.28"/><path class="cls-8" d="M325.89,365.45v85.28h-99V365.45h99m1-1h-101v87.28h101Z" transform="translate(0 0)"/><rect class="cls-9" x="630.36" y="452.22" width="99.99" height="86.28"/><path class="cls-8" d="M729.82,452.73V538h-99V452.73h99m1-1h-101V539h101Z" transform="translate(0 0)"/><rect class="cls-9" x="529.37" y="452.22" width="99.99" height="86.28"/><path class="cls-8" d="M628.82,452.73V538h-99V452.73h99m1-1h-101V539h101Z" transform="translate(0 0)"/><rect class="cls-9" x="428.38" y="452.22" width="99.99" height="86.28"/><path class="cls-8" d="M527.87,452.73V538h-99V452.73h99m1-1h-101V539h101Z" transform="translate(0 0)"/><rect class="cls-9" x="327.39" y="452.22" width="99.99" height="86.28"/><path class="cls-8" d="M426.88,452.73V538h-99V452.73h99m1-1h-101V539h101Z" transform="translate(0 0)"/><rect class="cls-9" x="226.4" y="452.22" width="99.99" height="86.28"/><path class="cls-8" d="M325.89,452.73V538h-99V452.73h99m1-1h-101V539h101Z" transform="translate(0 0)"/><rect class="cls-9" x="630.36" y="539.5" width="99.99" height="86.28"/><path class="cls-8" d="M729.82,540v85.28h-99V540h99m1-1h-101v87.28h101Z" transform="translate(0 0)"/><rect class="cls-9" x="529.37" y="539.5" width="99.99" height="86.28"/><path class="cls-8" d="M628.82,540v85.28h-99V540h99m1-1h-101v87.28h101Z" transform="translate(0 0)"/><rect class="cls-9" x="428.38" y="539.5" width="99.99" height="86.28"/><path class="cls-8" d="M527.87,540v85.28h-99V540h99m1-1h-101v87.28h101Z" transform="translate(0 0)"/><rect class="cls-9" x="327.39" y="539.5" width="99.99" height="86.28"/><path class="cls-8" d="M426.88,540v85.28h-99V540h99m1-1h-101v87.28h101Z" transform="translate(0 0)"/><rect class="cls-9" x="226.4" y="539.5" width="99.99" height="86.28"/><path class="cls-8" d="M325.89,540v85.28h-99V540h99m1-1h-101v87.28h101Z" transform="translate(0 0)"/><path class="cls-4" d="M436.42,704.88c2.86-2.17,5.55-4.73,6.38-7.85a6.65,6.65,0,0,0-4.46-8c-4.09-1.28-8.46,1-11.78,3.37s-7.11,5-11.45,4.51c4.49-3.25,6.63-8.52,5.39-13.31a5.19,5.19,0,0,0-1.5-2.7c-2.27-2-6.39-1.13-9.11.43-8.65,5-11.06,14.55-11.11,23.18-.87-3.11-.14-6.35-.16-9.55s-1.09-6.73-4.39-8.45a15.58,15.58,0,0,0-6.7-1.29c-3.89-.12-8.22.2-10.87,2.52-3.3,2.88-2.44,7.72.43,10.89s7.24,5.16,11.25,7.35c3.06,1.67,6.16,3.62,8,6.26a6,6,0,0,1,.6,1.12h24.37A70.12,70.12,0,0,0,436.42,704.88Z" transform="translate(0 0)"/><circle class="cls-10" cx="239.59" cy="203.52" r="5.7"/><circle class="cls-11" cx="253.83" cy="203.52" r="5.7"/><circle class="cls-12" cx="440.87" cy="288.02" r="5.7"/><circle class="cls-12" cx="455.12" cy="288.02" r="5.7"/><circle class="cls-12" cx="745.64" cy="451.32" r="5.7"/><circle class="cls-12" cx="748.49" cy="444.68" r="5.7"/><circle class="cls-12" cx="751.34" cy="438.98" r="5.7"/><circle class="cls-12" cx="645" cy="203.52" r="5.7"/><circle class="cls-12" cx="659.24" cy="203.52" r="5.7"/><circle class="cls-12" cx="673.49" cy="203.52" r="5.7"/><circle class="cls-12" cx="687.73" cy="203.52" r="5.7"/><circle class="cls-13" cx="645" cy="380.11" r="5.7"/><circle class="cls-13" cx="659.24" cy="380.11" r="5.7"/><circle class="cls-13" cx="673.49" cy="380.11" r="5.7"/><circle class="cls-13" cx="687.73" cy="380.11" r="5.7"/><circle class="cls-11" cx="340.23" cy="288.02" r="5.7"/><circle class="cls-10" cx="239.59" cy="374.42" r="5.7"/><path class="cls-14" d="M740.72,465.62c6.25,3.69,16,6.09,28.35-1.84L769,481.34c.88,12,15.77,55.91,15.77,55.91l10.5,36.1a282.53,282.53,0,0,1,11.54,78.53c0,8.81.82,17.89,3.35,24.72,5.59,15.11-2.2,34.58-5.58,41.83a176.09,176.09,0,0,1-17.33,4.88,12,12,0,0,0-1.55.47l-.07-.1s-15.76,6.25-22.76,5.39c-5.22-.64-8.49,5.87-4.4,10.66-3.86,1-7.82,1.71-10.49,1.38-7-.86-10.51,11.18,2.63,14.62s87.59,0,87.59,0a10.55,10.55,0,0,0,5.6-11.66c5.72-.22,9.29-.39,9.29-.39s13.14-6,0-22.37l-.7.53-2.81-8.27V702.4s16.64-80,11.39-89.46-8-57.63-8-57.63l1.78-52.47c4.75-9.8,7.18-25.16,8.41-37.17A78.92,78.92,0,0,0,866.55,448c.21-2.82.38-5.78.49-8.85a59.49,59.49,0,0,0-3.26-19.79c5-7.2,13.13-18.33,19.84-24.91,10.51-10.32,7.88-22.37,7.88-22.37l-4.38-29.25L876.65,293c1.32-13.84-1.57-21.81-4.76-26.31.76-4.47,1.47-8.94,2-13.43a171.88,171.88,0,0,0-3.07-58.48c-1.52-6.69-3.59-13.55-8.28-18.62-5.31-5.74-13.93-9.24-15.91-16.76-.49-1.87-.51-3.86-1.22-5.66-1.92-4.92-8-6.71-13.32-7.35-9.48-1.15-23.19-2-32.3,1.7-6.36,2.6-15.12,9.76-18.6,17.44-2,3.53-2.93,7.24-2.08,10.73a14.71,14.71,0,0,0,1.51,3.67,32.86,32.86,0,0,0-2,11.49A33.55,33.55,0,0,0,800,222.53c.21.66.4,1.31.56,2a32.51,32.51,0,0,1,.86,4.69c-.17,3-.36,6.09-.5,9.14-.1.42-.21.83-.32,1.24a226.32,226.32,0,0,0-22,11.22c5.26,7.74-.88,40.43-.88,40.43-13.14,7.74-26.28,27.53-12.26,48.17s6.13,43,6.13,43L769.4,416h0v.06l-.4,6.74h.17l-.17,2.55.38.07v2.74c-6.15,2.26-15.14,6.82-20.5,15.25a53.64,53.64,0,0,1-9.17,11.25,6.77,6.77,0,0,0-.69,9.54A6.84,6.84,0,0,0,740.72,465.62Zm105.76-89.36a32,32,0,0,1,3.11-16.92q3.09.06,6.19.07c.21,1.45.46,2.83.76,4.09,1.78,7.58-5.33,11.21-10.07,12.75Z" transform="translate(0 0)"/><path class="cls-15" d="M848.21,709.65l3.37,10.11-11,11-36.24,8.43-26.13-2.53,1.69-9.27h0a11.18,11.18,0,0,1,8.3-8.17c10.74-2.52,31.22-8.28,35.52-16.27Z" transform="translate(0 0)"/><path class="cls-16" d="M848.21,709.65l3.37,10.11-11,11-36.24,8.43-26.13-2.53,1.69-9.27h0a11.18,11.18,0,0,1,8.3-8.17c10.74-2.52,31.22-8.28,35.52-16.27Z" transform="translate(0 0)"/><path class="cls-9" d="M786.68,734.09l5.06-6.74-5.06-7.81s-15.17,6.12-21.91,5.28-10.11,11,2.53,14.33,84.28,0,84.28,0,12.64-5.9,0-21.91l-11,8.43S822,735.78,812.77,734.1Z" transform="translate(0 0)"/><path class="cls-15" d="M763.92,748.4l26.13,2.53,36.24-8.43,11-11-.89-2.68-1.26-3.76-1.26-3.66-24.44-6.74a15.13,15.13,0,0,1-5,5c-7.94,5.43-22.2,9.35-30.57,11.31a8.88,8.88,0,0,0-1,.31,11.14,11.14,0,0,0-7.26,7.86Z" transform="translate(0 0)"/><path class="cls-16" d="M763.92,748.4l26.13,2.53,36.24-8.43,11-11-.89-2.68-10.06,7.74S807.8,746.67,798.53,745H772.35l5.06-6.74-4.54-7a11.14,11.14,0,0,0-7.26,7.86Z" transform="translate(0 0)"/><path class="cls-9" d="M772.35,745.89l5.06-6.74-5.06-7.81s-15.17,6.12-21.91,5.28-10.11,11,2.53,14.33,84.28,0,84.28,0,12.64-5.9,0-21.91l-11,8.43s-18.54,10.11-27.81,8.43Z" transform="translate(0 0)"/><path class="cls-15" d="M793.42,257.06s40.46,4.21,34.56-12.64a30.33,30.33,0,0,1-1.25-14.88,41.23,41.23,0,0,1,7.15-17.14L796,218.3a47.68,47.68,0,0,1,5.14,12.18C805.61,248.35,793.42,257.06,793.42,257.06Z" transform="translate(0 0)"/><path class="cls-17" d="M862.53,449.22s-.84,36.24-9.27,53.94l-1.69,51.41s2.53,47.2,7.59,56.47-11,87.65-11,87.65v13.49s-27,10.11-34.56-1.69l7.59-100.3-3.37-139.06Z" transform="translate(0 0)"/><path class="cls-18" d="M862.53,449.22s-.84,36.24-9.27,53.94l-1.69,51.41s2.53,47.2,7.59,56.47-11,87.65-11,87.65v13.49s-27,10.11-34.56-1.69l7.59-100.3-3.37-139.06Z" transform="translate(0 0)"/><path class="cls-10" d="M879.39,332.91l5.06,13.49,4.21,28.66A25.36,25.36,0,0,1,881.07,397c-10.11,10.11-23.6,31.18-23.6,31.18l-16-48s16-2.53,13.49-13.49-1.7-31.26-1.7-31.26Z" transform="translate(0 0)"/><path class="cls-19" d="M879.39,332.91l5.06,13.49,4.21,28.66A25.36,25.36,0,0,1,881.07,397c-10.11,10.11-23.6,31.18-23.6,31.18l-16-48s16-2.53,13.49-13.49-1.7-31.26-1.7-31.26Z" transform="translate(0 0)"/><path class="cls-16" d="M804.48,719.67c10.81,17,27.64,7.37,30.62,5.45l-1.22-3.72-24.44-6.74A15.32,15.32,0,0,1,804.48,719.67Z" transform="translate(0 0)"/><path class="cls-19" d="M770.67,482.09c.84,11.8,15.17,54.78,15.17,54.78L796,572.24a281.74,281.74,0,0,1,11.11,76.94c0,8.63.79,17.53,3.23,24.22,6.74,18.54-6.74,43.83-6.74,43.83,11.8,21.07,32,6.74,32,6.74V710.49s16-73.33,11.8-87.65-5.9-53.1-5.9-53.1v-70a79.37,79.37,0,0,0,23.13-50.32c.2-2.76.36-5.66.47-8.67.68-19-12.32-41.31-17.4-49.25-1.22-1.92-2-3-2-3L771.23,418l-.17.07v9.25Z" transform="translate(0 0)"/><path class="cls-16" d="M796,218.29a47.68,47.68,0,0,1,5.14,12.18,33,33,0,0,0,25.64-.94,41.27,41.27,0,0,1,7.15-17.13Z" transform="translate(0 0)"/><circle class="cls-15" cx="812.81" cy="198.05" r="32.87"/><path class="cls-16" d="M770.67,427.31l.36.07c35.34,7.27,79.71-29.57,79.71-29.57a42.81,42.81,0,0,1-3.07-6.27c-1.22-1.92-2-3-2-3l-74.42,29.52-.19,2.95Z" transform="translate(0 0)"/><path class="cls-19" d="M779.94,256.21s47.2-28.66,62.37-16.86l21.07,27s13.49,4.21,11,31.18l10.07,48.87L854.11,354s-17.7,16.86-3.37,41.3c0,0-44.67,37.08-80.07,29.5l2.53-39.61s7.59-21.91-5.9-42.14-.84-39.61,11.8-47.2C779.1,295.83,785,263.8,779.94,256.21Z" transform="translate(0 0)"/><path class="cls-15" d="M777.41,428.15s-17.7,3.37-26.13,16.86a52.3,52.3,0,0,1-8.82,11,6.69,6.69,0,0,0-.46,9.45h0a6.77,6.77,0,0,0,1.46,1.21c6.69,4,17.6,6.49,31.38-4.83C798.48,442.48,777.41,428.15,777.41,428.15Z" transform="translate(0 0)"/><path class="cls-16" d="M803.54,272.23s16.86-1.69,21.07,42.14,11,53.94,11,53.94,4.21,22.76-5.9,36.24-29.5,42.14-29.5,42.14-21.07,5.9-25.28-15.17l26.13-48.88s4.21-16.86-5.9-28.66S777.41,263.8,803.54,272.23Z" transform="translate(0 0)"/><path class="cls-19" d="M801.82,269.7s16.86-1.69,21.07,42.14,11,53.94,11,53.94S838.1,388.54,828,402s-29.5,42.14-29.5,42.14S777.43,450,773.22,429l26.13-48.88s4.21-16.86-5.9-28.66S775.72,261.27,801.82,269.7Z" transform="translate(0 0)"/><path class="cls-16" d="M787.94,301.3s-1.68,26.1,5.88,40.46,7.59,32.87,0,43" transform="translate(0 0)"/><path class="cls-16" d="M783.73,269.28s6.74-6.74,26.13-7.59,27.81-6.7,27.81-6.7" transform="translate(0 0)"/><path class="cls-16" d="M830.61,155.58c5.12.63,11,2.39,12.82,7.2.68,1.77.7,3.72,1.17,5.55,1.91,7.36,10.2,10.79,15.31,16.42,4.51,5,6.5,11.69,8,18.24a171.41,171.41,0,0,1,3,57.26c-1.64,14-5,27.74-5.94,41.78s.78,28.81,8.45,40.61c3.3,5.07,7.66,9.53,10,15.11-4.83,3.92-11.5,4.48-17.73,4.69q-10.87.38-21.75,0c-3.8-.13-7.77-.38-11.05-2.3a17.08,17.08,0,0,1-5.8-6.23c-4.15-7-5.19-15.5-5-23.66s1.47-16.28,1.62-24.45c.08-4.45-.27-9.18-2.83-12.82-1.85-2.63-4.66-4.4-7.06-6.53-9-8-12.12-20.82-12.42-32.87s1.69-24.12.67-36.13c-.4-4.7-2.16-10.35-6.78-11.26-1.46-.29-3,0-4.4-.56-3.71-1.43-3.35-6.66-4.41-10.49-1.19-4.3-4.86-7.62-5.89-12-2.43-10.2,10.55-22.37,19.06-25.92S821.49,154.46,830.61,155.58Z" transform="translate(0 0)"/><path class="cls-20" d="M831.45,153.9c5.12.63,11,2.39,12.82,7.2.68,1.77.7,3.72,1.17,5.55,1.91,7.36,10.2,10.79,15.31,16.42,4.51,5,6.5,11.69,8,18.24a171.41,171.41,0,0,1,3,57.26c-1.64,14-5,27.74-5.94,41.78s.78,28.81,8.45,40.61c3.3,5.07,7.66,9.53,10,15.11-4.83,3.92-11.5,4.48-17.73,4.69q-10.87.38-21.75,0c-3.8-.13-7.77-.38-11-2.3a17.08,17.08,0,0,1-5.8-6.23c-4.15-7-5.19-15.5-5-23.66s1.47-16.28,1.62-24.45c.08-4.45-.27-9.18-2.83-12.82-1.85-2.63-4.66-4.4-7.06-6.53-9-8-12.12-20.82-12.42-32.87s1.69-24.12.67-36.13c-.4-4.7-2.16-10.35-6.78-11.26-1.46-.29-3,0-4.4-.56-3.71-1.43-3.35-6.66-4.41-10.49-1.19-4.3-4.86-7.62-5.89-12-2.48-10.2,10.52-22.37,19-25.92S822.33,152.77,831.45,153.9Z" transform="translate(0 0)"/><path class="cls-21" d="M795.87,526.41c5.76.73,28.37,1.36,37.16,0a8.93,8.93,0,0,1,1.93-.15c2.2.15,2.62,2.14-1.74,3.33-5.9,1.6-21.05,1.85-30.19.57-6.4-.9-8.42-2.35-9.1-2.83-.34-.25-1.31-.94-.19-1.07A10.85,10.85,0,0,1,795.87,526.41Z" transform="translate(0 0)"/><path class="cls-21" d="M777.13,387.7a77.6,77.6,0,0,0,13.12-2,3.2,3.2,0,0,1,.68-.16c.78-.06,1,.64-.44,1.3-2,.9-7.32,1.81-10.62,1.83a6.73,6.73,0,0,1-3.37-.55c-.13-.07-.51-.27-.12-.38A3.78,3.78,0,0,1,777.13,387.7Z" transform="translate(0 0)"/><g class="cls-22"><path class="cls-23" d="M242.92,59.42a20.87,20.87,0,0,0-8.79,23c3.13,11.3,15.12,18,26.79,15a21.34,21.34,0,0,0,16.21-19.77,20.23,20.23,0,0,1-15,15.95c-11,2.86-22.34-3.47-25.29-14.14a19.61,19.61,0,0,1,6.09-20Z" transform="translate(0 0)"/><path class="cls-24" d="M267.37,88.66a17.63,17.63,0,0,0,7.42-19.4c-2.64-9.54-12.76-15.2-22.61-12.65A18,18,0,0,0,238.5,73.3a17.1,17.1,0,0,1,12.67-13.46,17.49,17.49,0,0,1,21.34,11.93,16.55,16.55,0,0,1-5.14,16.89Z" transform="translate(0 0)"/><path class="cls-25" d="M245.9,71.35H252V69.78h2.15v.92h2.18v-.92h2.14v1.57h6.16s0-.06,0-.09a6.14,6.14,0,0,0,0-3.07h0A3.9,3.9,0,0,0,262.16,65a5.83,5.83,0,0,0-3.64.15,12,12,0,0,1-3.22.64,11.57,11.57,0,0,1-3.26-.64,5.77,5.77,0,0,0-3.62-.15,4.09,4.09,0,0,0-2.67,3.17,6.74,6.74,0,0,0,.12,3.06Z" transform="translate(0 0)"/><path class="cls-25" d="M258.49,72.27v1.57h-2.14v-.92h-2.18v.92H252V72.27H246.2a20.87,20.87,0,0,0,.85,2.09,10,10,0,0,1,.87,2.49,13.19,13.19,0,0,1,.08,2.5,25.35,25.35,0,0,0,.15,3.81c.59,4.12,1.53,6.16,2.83,6.16a1.43,1.43,0,0,0,.74-.19,1.47,1.47,0,0,0,.47-.75,5.68,5.68,0,0,0,.24-1,5.93,5.93,0,0,0,.08-1.28c0-.57,0-1-.08-1.32s0-.79-.08-1.36a11.86,11.86,0,0,1,0-2c.2-2.26,1.18-3.36,3-3.36s2.74,1.1,2.94,3.36a11.86,11.86,0,0,1,0,2c0,.56-.08,1-.12,1.36a11.8,11.8,0,0,0,0,1.32,10.47,10.47,0,0,0,.08,1.28,5.61,5.61,0,0,0,.23,1,1.41,1.41,0,0,0,.47.75,1.46,1.46,0,0,0,.75.19c1.29,0,2.24-2,2.82-6.16a23.74,23.74,0,0,0,.16-3.81,12.28,12.28,0,0,1,.08-2.5,9.93,9.93,0,0,1,.86-2.49,21.15,21.15,0,0,0,.87-2.09Z" transform="translate(0 0)"/><path class="cls-26" d="M288.41,61.45a4.36,4.36,0,0,0-2.37-.62,4.82,4.82,0,0,0-2,.39,3.64,3.64,0,0,0-1.37,1.06,4.08,4.08,0,0,0-.79,1.5,6.1,6.1,0,0,0-.26,1.76,6.42,6.42,0,0,0,.26,1.88,4.29,4.29,0,0,0,.79,1.55,3.84,3.84,0,0,0,1.38,1,4.74,4.74,0,0,0,2,.39,4.23,4.23,0,0,0,1.53-.25,3.46,3.46,0,0,0,1.16-.7,3.37,3.37,0,0,0,.76-1.06,4.19,4.19,0,0,0,.33-1.34h1.73a5,5,0,0,1-1.69,3.42,5.94,5.94,0,0,1-3.95,1.22,7.13,7.13,0,0,1-2.65-.46A5.31,5.31,0,0,1,281.39,70,5.2,5.2,0,0,1,280.27,68a7.37,7.37,0,0,1-.38-2.38,7.16,7.16,0,0,1,.4-2.38,5.54,5.54,0,0,1,1.19-2A5.45,5.45,0,0,1,283.41,60a6.93,6.93,0,0,1,2.66-.48,7.21,7.21,0,0,1,1.94.25,5.19,5.19,0,0,1,1.62.72,4.15,4.15,0,0,1,1.19,1.17,4.06,4.06,0,0,1,.62,1.64H289.7A2.88,2.88,0,0,0,288.41,61.45Z" transform="translate(0 0)"/><path class="cls-26" d="M295.11,59.81V71.42h-1.55V59.81Z" transform="translate(0 0)"/><path class="cls-26" d="M301,58.89l-2.59,2.64h-1.16L299,58.89Zm-3.4,12.53h1.55V63h-1.55v8.41Z" transform="translate(0 0)"/><path class="cls-26" d="M303,63v1.34h0a3.37,3.37,0,0,1,3.07-1.53,4.69,4.69,0,0,1,1.56.22,2.54,2.54,0,0,1,1,.64,2.22,2.22,0,0,1,.54,1,4.8,4.8,0,0,1,.16,1.25v5.53h-1.56v-5.7a1.59,1.59,0,0,0-.51-1.24,2.06,2.06,0,0,0-1.41-.45,3.53,3.53,0,0,0-1.23.19,2.29,2.29,0,0,0-.86.56,2.23,2.23,0,0,0-.53.84,3.17,3.17,0,0,0-.17,1.05v4.75h-1.56V63Z" transform="translate(0 0)"/><path class="cls-26" d="M311.84,61.5V59.81h1.55V61.5ZM313.39,63v8.41h-1.55V63Z" transform="translate(0 0)"/><path class="cls-26" d="M321.45,64.48a2.5,2.5,0,0,0-1.57-.44,3.14,3.14,0,0,0-1.41.28,2.33,2.33,0,0,0-.9.73,2.82,2.82,0,0,0-.49,1,5.45,5.45,0,0,0-.14,1.23,4.41,4.41,0,0,0,.15,1.14,3,3,0,0,0,.48,1,2.45,2.45,0,0,0,.86.69,2.78,2.78,0,0,0,1.26.26,2.72,2.72,0,0,0,1.8-.54,2.35,2.35,0,0,0,.8-1.51h1.58a3.69,3.69,0,0,1-1.31,2.41,4.39,4.39,0,0,1-2.86.85,5.43,5.43,0,0,1-1.91-.31,3.63,3.63,0,0,1-2.22-2.24,5.06,5.06,0,0,1-.29-1.73,5.38,5.38,0,0,1,.28-1.77,3.93,3.93,0,0,1,.83-1.43,3.88,3.88,0,0,1,1.4-1,5.19,5.19,0,0,1,2-.35,5.94,5.94,0,0,1,1.5.17,3.81,3.81,0,0,1,1.25.53,3,3,0,0,1,1.32,2.19h-1.6A2,2,0,0,0,321.45,64.48Z" transform="translate(0 0)"/><path class="cls-26" d="M334,71.39a2.44,2.44,0,0,1-1.12.22,1.45,1.45,0,0,1-1-.3,1.23,1.23,0,0,1-.35-1,3.82,3.82,0,0,1-1.5,1,5.45,5.45,0,0,1-1.83.3,5.93,5.93,0,0,1-1.22-.13,3.33,3.33,0,0,1-1-.41,2,2,0,0,1-.66-.72,2.17,2.17,0,0,1-.25-1.09,2.3,2.3,0,0,1,.27-1.17,2.34,2.34,0,0,1,.73-.74,3.37,3.37,0,0,1,1-.43,11.78,11.78,0,0,1,1.18-.25c.43-.08.84-.13,1.22-.17a8,8,0,0,0,1-.16,2,2,0,0,0,.7-.31.75.75,0,0,0,.25-.59,1.18,1.18,0,0,0-.69-1.16,2,2,0,0,0-.67-.19,6.3,6.3,0,0,0-.75,0,3.66,3.66,0,0,0-1.64.33,1.38,1.38,0,0,0-.72,1.26h-1.55a2.62,2.62,0,0,1,.37-1.31,2.42,2.42,0,0,1,.87-.87A3.83,3.83,0,0,1,328,63a7.36,7.36,0,0,1,1.51-.15,10.86,10.86,0,0,1,1.28.08,3.7,3.7,0,0,1,1.14.34A1.92,1.92,0,0,1,333,65.13v4.32a2.62,2.62,0,0,0,.07.72c0,.15.19.22.43.22a2.32,2.32,0,0,0,.48-.06v1.06Zm-2.52-4.31a2,2,0,0,1-.77.28c-.32.06-.65.11-1,.15l-1,.13a4.9,4.9,0,0,0-1,.23,1.78,1.78,0,0,0-.69.46,1.24,1.24,0,0,0-.26.82,1,1,0,0,0,.15.57,1.21,1.21,0,0,0,.4.38,1.74,1.74,0,0,0,.58.21,3.85,3.85,0,0,0,.69.06,4.3,4.3,0,0,0,1.32-.18,2.92,2.92,0,0,0,.9-.47,1.94,1.94,0,0,0,.51-.62,1.39,1.39,0,0,0,.16-.62v-1.4Z" transform="translate(0 0)"/><path class="cls-26" d="M345.26,59.81a7.08,7.08,0,0,1,4.65,1.36,5.16,5.16,0,0,1,1.62,4.17,8.28,8.28,0,0,1-.37,2.6,4.72,4.72,0,0,1-1.13,1.9,5.09,5.09,0,0,1-2,1.18,8.73,8.73,0,0,1-2.81.4h-4.48V59.81Zm.15,10.32c.19,0,.44,0,.73,0a4.33,4.33,0,0,0,.93-.2,4.7,4.7,0,0,0,1-.44,3.26,3.26,0,0,0,.87-.8,4.37,4.37,0,0,0,.63-1.26,5.82,5.82,0,0,0,.25-1.83,7.09,7.09,0,0,0-.23-1.87,3.38,3.38,0,0,0-.75-1.4,3.34,3.34,0,0,0-1.34-.88,6,6,0,0,0-2-.3h-2.92v9Z" transform="translate(0 0)"/><path class="cls-26" d="M360.09,70.89a4.66,4.66,0,0,1-2.67.72,5.31,5.31,0,0,1-2-.33,3.78,3.78,0,0,1-1.4-.91,3.64,3.64,0,0,1-.85-1.4,6.19,6.19,0,0,1-.33-1.78,4.51,4.51,0,0,1,.33-1.75,4.14,4.14,0,0,1,.93-1.39,4.18,4.18,0,0,1,1.4-.91,4.7,4.7,0,0,1,1.78-.33,4.2,4.2,0,0,1,2.09.47,3.92,3.92,0,0,1,1.34,1.17,4.43,4.43,0,0,1,.7,1.57,5.66,5.66,0,0,1,.15,1.61h-7.08a3,3,0,0,0,.15,1.05,2.41,2.41,0,0,0,.53.88,2.6,2.6,0,0,0,.94.61,3.56,3.56,0,0,0,1.33.23,3,3,0,0,0,1.62-.41,1.94,1.94,0,0,0,.83-1.24h1.54A3.3,3.3,0,0,1,360.09,70.89Zm-.38-5.4a2.24,2.24,0,0,0-.56-.76,2.71,2.71,0,0,0-.84-.5,2.87,2.87,0,0,0-1.07-.19,2.9,2.9,0,0,0-1.09.19,2.46,2.46,0,0,0-.84.51,2.49,2.49,0,0,0-.78,1.68H360A2.67,2.67,0,0,0,359.71,65.49Z" transform="translate(0 0)"/><path class="cls-26" d="M364.68,63v1.34h0a3.36,3.36,0,0,1,3.07-1.53,4.59,4.59,0,0,1,1.55.22,2.58,2.58,0,0,1,1,.64,2.22,2.22,0,0,1,.54,1,4.8,4.8,0,0,1,.16,1.25v5.53h-1.56v-5.7a1.59,1.59,0,0,0-.51-1.24,2.06,2.06,0,0,0-1.41-.45,3.53,3.53,0,0,0-1.23.19,2.29,2.29,0,0,0-.86.56,2.23,2.23,0,0,0-.53.84,3.17,3.17,0,0,0-.17,1.05v4.75h-1.56V63Z" transform="translate(0 0)"/><path class="cls-26" d="M377.42,63v1.22h-1.88v5.23a1.37,1.37,0,0,0,0,.39.46.46,0,0,0,.18.23.77.77,0,0,0,.35.1,4.86,4.86,0,0,0,.6,0h.71v1.22h-1.19a6.09,6.09,0,0,1-1-.07,1.54,1.54,0,0,1-.7-.28,1.15,1.15,0,0,1-.4-.55,3,3,0,0,1-.12-.94V64.23h-1.62V63H374V60.49h1.55V63Z" transform="translate(0 0)"/><path class="cls-26" d="M387.51,71.39a2.4,2.4,0,0,1-1.11.22,1.45,1.45,0,0,1-1-.3,1.23,1.23,0,0,1-.36-1,3.72,3.72,0,0,1-1.49,1,5.5,5.5,0,0,1-1.84.3,5.9,5.9,0,0,1-1.21-.13,3,3,0,0,1-1-.41,1.93,1.93,0,0,1-.67-.72,2.17,2.17,0,0,1-.24-1.09,2.3,2.3,0,0,1,.27-1.17,2.34,2.34,0,0,1,.73-.74,3.37,3.37,0,0,1,1-.43,11.21,11.21,0,0,1,1.18-.25c.43-.08.83-.13,1.22-.17a8,8,0,0,0,1-.16,2,2,0,0,0,.7-.31.72.72,0,0,0,.25-.59,1.18,1.18,0,0,0-.69-1.16,2,2,0,0,0-.67-.19,6.44,6.44,0,0,0-.75,0,3.66,3.66,0,0,0-1.64.33,1.36,1.36,0,0,0-.71,1.26H379a2.73,2.73,0,0,1,.37-1.31,2.53,2.53,0,0,1,.88-.87A3.83,3.83,0,0,1,381.5,63a7.23,7.23,0,0,1,1.51-.15,10.69,10.69,0,0,1,1.27.08,3.7,3.7,0,0,1,1.14.34,2.11,2.11,0,0,1,.83.7,2.06,2.06,0,0,1,.31,1.19v4.32a3.2,3.2,0,0,0,.06.72c.05.15.19.22.44.22a2.23,2.23,0,0,0,.47-.06v1.06ZM385,67.08a2,2,0,0,1-.77.28c-.32.06-.65.11-1,.15l-1.05.13a4.56,4.56,0,0,0-.95.23,1.78,1.78,0,0,0-.69.46,1.24,1.24,0,0,0-.26.82,1,1,0,0,0,.15.57,1.21,1.21,0,0,0,.4.38,1.66,1.66,0,0,0,.58.21,3.85,3.85,0,0,0,.69.06,4.3,4.3,0,0,0,1.32-.18,2.92,2.92,0,0,0,.9-.47,1.94,1.94,0,0,0,.51-.62,1.42,1.42,0,0,0,.17-.62v-1.4Z" transform="translate(0 0)"/><path class="cls-26" d="M390.6,59.81V71.42H389V59.81Z" transform="translate(0 0)"/><path class="cls-27" d="M283.42,84.81l-3.29-10.2h2.29l2.26,7.17h0L287,74.61h2.3l-3.37,10.2Z" transform="translate(0 0)"/><path class="cls-27" d="M292.68,74.62v10.2h-2.23V74.62Z" transform="translate(0 0)"/><path class="cls-27" d="M296.63,82.3a1.74,1.74,0,0,0,.49.58,2.07,2.07,0,0,0,.72.33,3.47,3.47,0,0,0,.85.1,4.85,4.85,0,0,0,.64,0,2,2,0,0,0,.64-.19,1.61,1.61,0,0,0,.5-.39,1,1,0,0,0,.2-.64.87.87,0,0,0-.27-.67,1.94,1.94,0,0,0-.69-.43,7.5,7.5,0,0,0-1-.3l-1.09-.29a8.42,8.42,0,0,1-1.11-.35,3.77,3.77,0,0,1-1-.53,2.6,2.6,0,0,1-.69-.82,2.46,2.46,0,0,1-.27-1.19,2.63,2.63,0,0,1,.34-1.37,3.2,3.2,0,0,1,.87-1,3.93,3.93,0,0,1,1.22-.58,5.3,5.3,0,0,1,1.36-.18,6.41,6.41,0,0,1,1.53.17,3.94,3.94,0,0,1,1.3.58,2.94,2.94,0,0,1,.9,1,3.21,3.21,0,0,1,.34,1.51h-2.16a1.8,1.8,0,0,0-.2-.76,1.22,1.22,0,0,0-.43-.47,1.8,1.8,0,0,0-.62-.25,3.57,3.57,0,0,0-.76-.07,2.48,2.48,0,0,0-.54.06,1.63,1.63,0,0,0-.49.2,1.23,1.23,0,0,0-.36.36.93.93,0,0,0-.15.54.89.89,0,0,0,.12.49,1.08,1.08,0,0,0,.44.34,7.13,7.13,0,0,0,.93.31l1.54.4c.19,0,.45.11.79.21a3.81,3.81,0,0,1,1,.48,3,3,0,0,1,.86.88,2.57,2.57,0,0,1,.36,1.4,3.12,3.12,0,0,1-.27,1.3,2.8,2.8,0,0,1-.81,1,4,4,0,0,1-1.32.68,6.77,6.77,0,0,1-3.46,0,4.11,4.11,0,0,1-1.39-.64,3.28,3.28,0,0,1-1-1.13,3.35,3.35,0,0,1-.34-1.63h2.16A2.64,2.64,0,0,0,296.63,82.3Z" transform="translate(0 0)"/><path class="cls-27" d="M309.5,74.61l3.79,10.2H311l-.76-2.27h-3.8l-.79,2.27h-2.25l3.84-10.2Zm.12,6.25-1.27-3.74h0L307,80.86Z" transform="translate(0 0)"/><path class="cls-27" d="M316.67,74.62l4.23,6.84h0V74.62H323v10.2h-2.23L316.57,78h0v6.83h-2.09V74.62Z" transform="translate(0 0)"/><path class="cls-26" d="M283.88,87.33a5.27,5.27,0,0,1,3.34.93,3.35,3.35,0,0,1,1.17,2.81,5.57,5.57,0,0,1-.26,1.76,3.19,3.19,0,0,1-.81,1.28,3.47,3.47,0,0,1-1.41.8,6.47,6.47,0,0,1-2,.28h-3.22V87.33Zm.11,7c.14,0,.31,0,.53,0a3.58,3.58,0,0,0,.67-.13,2.88,2.88,0,0,0,.7-.31,2.23,2.23,0,0,0,.63-.53,3,3,0,0,0,.45-.86,4,4,0,0,0,.17-1.24A4.43,4.43,0,0,0,287,90a2.23,2.23,0,0,0-1.51-1.53,4.38,4.38,0,0,0-1.46-.21h-2.1v6.1H284Z" transform="translate(0 0)"/><path class="cls-26" d="M290.75,89.5v1.2h0a2.67,2.67,0,0,1,1-1,2.83,2.83,0,0,1,1.5-.31v1a3.87,3.87,0,0,0-1.15.15,1.73,1.73,0,0,0-.76.45,1.75,1.75,0,0,0-.42.72,3.26,3.26,0,0,0-.14,1v2.53H289.7V89.5Z" transform="translate(0 0)"/><path class="cls-26" d="M294.62,94V95.2h-1.46V94Z" transform="translate(0 0)"/><path class="cls-26" d="M302.69,95.2l-3.3-7.87h1.34l2.69,6.81h0l2.71-6.81h1.31l-3.35,7.87Z" transform="translate(0 0)"/><path class="cls-26" d="M308.1,88.48V87.33h1.12v1.15Zm1.12,1v5.69H308.1V89.5Z" transform="translate(0 0)"/><path class="cls-26" d="M315,90.49a2,2,0,0,0-1.14-.29,2.33,2.33,0,0,0-1,.19,1.62,1.62,0,0,0-.65.49,1.75,1.75,0,0,0-.35.71,3.4,3.4,0,0,0-.11.84,2.74,2.74,0,0,0,.11.76,2,2,0,0,0,.35.67,1.73,1.73,0,0,0,.62.47,2.11,2.11,0,0,0,.91.18,2,2,0,0,0,1.3-.37,1.54,1.54,0,0,0,.57-1h1.15a2.5,2.5,0,0,1-.94,1.63,3.34,3.34,0,0,1-2.06.57,4.07,4.07,0,0,1-1.37-.21,2.6,2.6,0,0,1-1-.59,2.39,2.39,0,0,1-.61-.92,3.2,3.2,0,0,1-.21-1.17,3.6,3.6,0,0,1,.2-1.2,2.64,2.64,0,0,1,.6-1,2.75,2.75,0,0,1,1-.65,3.82,3.82,0,0,1,1.41-.24,5.34,5.34,0,0,1,1.08.11,3,3,0,0,1,.9.36,2.33,2.33,0,0,1,.64.61,2.05,2.05,0,0,1,.31.88h-1.15A1.47,1.47,0,0,0,315,90.49Z" transform="translate(0 0)"/><path class="cls-26" d="M320.94,89.5v.82h-1.36v3.53a1,1,0,0,0,0,.27.24.24,0,0,0,.13.15.67.67,0,0,0,.25.08h.94v.82h-.86a4,4,0,0,1-.74-.05,1.14,1.14,0,0,1-.5-.18.81.81,0,0,1-.29-.38,1.85,1.85,0,0,1-.09-.64V90.31h-1.16v-.83h1.16v-1.7h1.12v1.7h1.37Z" transform="translate(0 0)"/><path class="cls-26" d="M322,91.18a2.66,2.66,0,0,1,.64-1,2.9,2.9,0,0,1,1-.63,3.88,3.88,0,0,1,1.42-.23,3.94,3.94,0,0,1,1.43.23,3.29,3.29,0,0,1,1,.63,2.77,2.77,0,0,1,.63,1,3.36,3.36,0,0,1,0,2.34,2.51,2.51,0,0,1-.63.94,3.18,3.18,0,0,1-1,.63,4.53,4.53,0,0,1-2.85,0,2.76,2.76,0,0,1-1-.63,2.54,2.54,0,0,1-.64-.94,3.41,3.41,0,0,1-.21-1.16A3.69,3.69,0,0,1,322,91.18Zm1.15,2.09a1.78,1.78,0,0,0,.46.67,1.86,1.86,0,0,0,.67.42,2.54,2.54,0,0,0,.83.14,2.48,2.48,0,0,0,.82-.14,2,2,0,0,0,.68-.42,1.88,1.88,0,0,0,.45-.67,2.72,2.72,0,0,0,0-1.84,2.18,2.18,0,0,0-.45-.68,2.16,2.16,0,0,0-.68-.42,2.48,2.48,0,0,0-.82-.14,2.54,2.54,0,0,0-.83.14,2,2,0,0,0-.67.42,1.82,1.82,0,0,0-.46.68,2.57,2.57,0,0,0,0,1.84Z" transform="translate(0 0)"/><path class="cls-26" d="M330.75,89.5v1.2h0a2.65,2.65,0,0,1,1-1,2.89,2.89,0,0,1,1.51-.31v1a3.82,3.82,0,0,0-1.15.15,1.79,1.79,0,0,0-.76.45,2,2,0,0,0-.42.72,3.28,3.28,0,0,0-.13,1v2.53h-1.13V89.5Z" transform="translate(0 0)"/><path class="cls-26" d="M342.66,88.4a3,3,0,0,0-1.6-.38,4.9,4.9,0,0,0-.77.07,2.36,2.36,0,0,0-.68.22,1.25,1.25,0,0,0-.47.41,1.11,1.11,0,0,0-.18.65.74.74,0,0,0,.26.59,2.08,2.08,0,0,0,.68.37,9.17,9.17,0,0,0,1,.24l1.1.21a9.77,9.77,0,0,1,1.1.25,3.88,3.88,0,0,1,1,.41,2.07,2.07,0,0,1,.68.63,1.65,1.65,0,0,1,.26,1,1.78,1.78,0,0,1-.33,1.08,2.57,2.57,0,0,1-.87.72,4.21,4.21,0,0,1-1.18.41,7.07,7.07,0,0,1-1.3.12,6.48,6.48,0,0,1-1.49-.16,4.08,4.08,0,0,1-1.24-.5,2.59,2.59,0,0,1-.85-.86,2.45,2.45,0,0,1-.31-1.24h1.19a1.54,1.54,0,0,0,.23.85,1.94,1.94,0,0,0,.61.6,3,3,0,0,0,.88.34,5,5,0,0,0,1.87,0,2.48,2.48,0,0,0,.77-.23,1.5,1.5,0,0,0,.56-.43,1.13,1.13,0,0,0,.21-.71.86.86,0,0,0-.26-.66,1.82,1.82,0,0,0-.68-.41,6,6,0,0,0-1-.25l-1.1-.21c-.37-.07-.73-.15-1.09-.24a4.56,4.56,0,0,1-1-.37,1.88,1.88,0,0,1-.69-.58,1.59,1.59,0,0,1-.25-.9,1.76,1.76,0,0,1,.29-1,2.32,2.32,0,0,1,.77-.72,3.59,3.59,0,0,1,1.1-.41,5.15,5.15,0,0,1,1.25-.14,6.26,6.26,0,0,1,1.34.14,3.35,3.35,0,0,1,1.09.46,2.24,2.24,0,0,1,.73.77,2.48,2.48,0,0,1,.3,1.12H343.4A1.6,1.6,0,0,0,342.66,88.4Z" transform="translate(0 0)"/><path class="cls-26" d="M352.34,95.17a1.78,1.78,0,0,1-.8.15,1.05,1.05,0,0,1-.69-.21.75.75,0,0,1-.26-.66,2.6,2.6,0,0,1-1.07.66,4.06,4.06,0,0,1-1.32.21,5,5,0,0,1-.88-.09,2.35,2.35,0,0,1-.72-.28,1.5,1.5,0,0,1-.48-.49,1.41,1.41,0,0,1-.18-.73,1.36,1.36,0,0,1,.2-.79,1.49,1.49,0,0,1,.52-.51,2.93,2.93,0,0,1,.74-.29c.27-.06.55-.12.85-.16s.6-.09.87-.11a5.85,5.85,0,0,0,.73-.12,1.3,1.3,0,0,0,.5-.21.47.47,0,0,0,.19-.4.85.85,0,0,0-.14-.5.87.87,0,0,0-.35-.28,1.76,1.76,0,0,0-.49-.13l-.53,0a2.81,2.81,0,0,0-1.19.22.93.93,0,0,0-.51.85h-1.12a1.7,1.7,0,0,1,.89-1.48,3.17,3.17,0,0,1,.91-.33,6.1,6.1,0,0,1,1.08-.1,7,7,0,0,1,.92.06,2.6,2.6,0,0,1,.82.22,1.55,1.55,0,0,1,.59.48,1.33,1.33,0,0,1,.23.8v2.92a2,2,0,0,0,0,.49c0,.1.14.15.31.15a1.12,1.12,0,0,0,.34,0v.74Zm-1.82-2.91a1.66,1.66,0,0,1-.56.19l-.71.1-.76.08a3.19,3.19,0,0,0-.69.16,1.23,1.23,0,0,0-.5.32.8.8,0,0,0-.19.55.62.62,0,0,0,.12.39.81.81,0,0,0,.29.26,1.48,1.48,0,0,0,.42.14,2.56,2.56,0,0,0,.49,0,3.28,3.28,0,0,0,.95-.12,2.19,2.19,0,0,0,.65-.32,1.21,1.21,0,0,0,.37-.42,1,1,0,0,0,.11-.42v-.95Zm.38-5.55L349,88.5h-.84l1.26-1.79Z" transform="translate(0 0)"/><path class="cls-26" d="M354.43,89.5v.9h0a2.5,2.5,0,0,1,2.21-1,3.32,3.32,0,0,1,1.12.16,1.71,1.71,0,0,1,.72.43,1.49,1.49,0,0,1,.39.65,2.82,2.82,0,0,1,.12.85V95.2h-1.13V91.35a1.06,1.06,0,0,0-.36-.84,1.52,1.52,0,0,0-1-.31,2.82,2.82,0,0,0-.88.13,1.8,1.8,0,0,0-.63.38,1.61,1.61,0,0,0-.37.56,2.08,2.08,0,0,0-.13.71V95.2h-1.12V89.51h1.05Z" transform="translate(0 0)"/><path class="cls-26" d="M364.77,90.49a2,2,0,0,0-1.13-.29,2.38,2.38,0,0,0-1,.19,1.62,1.62,0,0,0-.65.49,2.05,2.05,0,0,0-.35.71,3.39,3.39,0,0,0-.1.84,2.74,2.74,0,0,0,.11.76,1.86,1.86,0,0,0,.35.67,1.65,1.65,0,0,0,.62.47,2.08,2.08,0,0,0,.91.18,2,2,0,0,0,1.3-.37,1.54,1.54,0,0,0,.57-1h1.14a2.5,2.5,0,0,1-.94,1.63,3.34,3.34,0,0,1-2.06.57,4.15,4.15,0,0,1-1.37-.21,2.68,2.68,0,0,1-1-.59,2.51,2.51,0,0,1-.61-.92,3.2,3.2,0,0,1-.21-1.17,3.6,3.6,0,0,1,.2-1.2,2.65,2.65,0,0,1,1.61-1.62,3.82,3.82,0,0,1,1.41-.24,5.27,5.27,0,0,1,1.08.11,3,3,0,0,1,.9.36,2.33,2.33,0,0,1,.64.61,1.93,1.93,0,0,1,.31.88h-1.15A1.52,1.52,0,0,0,364.77,90.49Z" transform="translate(0 0)"/><path class="cls-26" d="M368.88,87.33v3h0a1.24,1.24,0,0,1,.37-.45,1.94,1.94,0,0,1,.53-.29,3.35,3.35,0,0,1,.62-.17,3.52,3.52,0,0,1,.63-.06,3.32,3.32,0,0,1,1.12.16,1.78,1.78,0,0,1,.72.43,1.49,1.49,0,0,1,.39.65,3.18,3.18,0,0,1,.11.85V95.2h-1.12V91.35a1,1,0,0,0-.37-.84,1.49,1.49,0,0,0-1-.31,2.93,2.93,0,0,0-.89.13,1.75,1.75,0,0,0-.62.38,1.64,1.64,0,0,0-.38.56,2.08,2.08,0,0,0-.12.71V95.2h-1.12V87.33Z" transform="translate(0 0)"/><path class="cls-26" d="M379.91,94.83a3.56,3.56,0,0,1-1.93.49,4.26,4.26,0,0,1-1.41-.22,2.92,2.92,0,0,1-1-.62,2.63,2.63,0,0,1-.61-1,3.88,3.88,0,0,1-.23-1.21,2.91,2.91,0,0,1,.24-1.19,2.77,2.77,0,0,1,.66-.93,3,3,0,0,1,1-.62,3.6,3.6,0,0,1,1.29-.22,3.22,3.22,0,0,1,1.51.31,2.82,2.82,0,0,1,1,.8,2.72,2.72,0,0,1,.5,1.06,4.23,4.23,0,0,1,.12,1.09h-5.1a2.07,2.07,0,0,0,.11.71,1.34,1.34,0,0,0,.38.59,1.87,1.87,0,0,0,.67.42,2.55,2.55,0,0,0,1,.15,2.14,2.14,0,0,0,1.16-.28,1.33,1.33,0,0,0,.6-.83h1.1A2.25,2.25,0,0,1,379.91,94.83Zm-.27-3.66a1.84,1.84,0,0,0-.41-.51,2.13,2.13,0,0,0-.61-.34,2.11,2.11,0,0,0-.77-.13,2.16,2.16,0,0,0-.78.13,1.79,1.79,0,0,0-.6.35,1.65,1.65,0,0,0-.39.51,1.47,1.47,0,0,0-.17.62h3.91A2,2,0,0,0,379.64,91.17Z" transform="translate(0 0)"/><path class="cls-26" d="M385.71,90.33h-3.85V89.5h5.29v.65L383,94.37h4.34v.83H381.6v-.72Z" transform="translate(0 0)"/></g></svg>